<svg xmlns="http://www.w3.org/2000/svg" width="122.051" height="37.661" viewBox="0 0 122.051 37.661"><defs><style>.a{fill:#3e2284;}</style></defs><path class="a" d="M9.995,220.717a9.508,9.508,0,0,1-7-3.049A10.855,10.855,0,0,1,0,209.787a11.071,11.071,0,0,1,2.917-7.92,8.734,8.734,0,0,1,6.495-3.129,8.508,8.508,0,0,1,6.261,2.733v-2.376h5.872v28.989H15.672V218.7A8.763,8.763,0,0,1,9.995,220.717Zm-4.122-10.93a6.047,6.047,0,0,0,1.517,4.237,4.7,4.7,0,0,0,3.539,1.624,4.354,4.354,0,0,0,3.422-1.624,6.354,6.354,0,0,0,1.4-4.237,6.573,6.573,0,0,0-1.4-4.317,4.28,4.28,0,0,0-3.461-1.742A4.5,4.5,0,0,0,7.35,205.47,6.349,6.349,0,0,0,5.872,209.787Z" transform="translate(0 -190.422)"/><path class="a" d="M608.521,218.741V207.256h5.872v21.306h-5.872V225.75a6.606,6.606,0,0,1-5.639,3.129,8.116,8.116,0,0,1-5.756-2.178q-2.333-2.218-2.333-6.534v-12.91h5.872v11.6q0,4.911,3.539,4.911a4.173,4.173,0,0,0,3.033-1.267A5.149,5.149,0,0,0,608.521,218.741Z" transform="translate(-569.903 -198.583)"/><path class="a" d="M1142.609,29.979h-5.834V8.673h5.834Zm-5.367-24a3.5,3.5,0,0,1-.973-2.495,3.366,3.366,0,0,1,.973-2.455,3.306,3.306,0,0,1,2.45-1.03,3.181,3.181,0,0,1,2.411,1.03,3.3,3.3,0,0,1,1.011,2.455A3.43,3.43,0,0,1,1142.1,5.98a3.242,3.242,0,0,1-2.411.99A3.372,3.372,0,0,1,1137.243,5.98Z" transform="translate(-1088.722)"/><path class="a" d="M1354.9,43.9a8.757,8.757,0,0,1-6.611-3.208,11.39,11.39,0,0,1-2.917-7.96,10.854,10.854,0,0,1,2.839-7.762,8.815,8.815,0,0,1,6.65-3.049,7.916,7.916,0,0,1,6.222,2.733V14.2h5.833V43.58h-5.833V40.768A7.542,7.542,0,0,1,1354.9,43.9Zm-3.656-10.93a6.047,6.047,0,0,0,1.517,4.237,4.7,4.7,0,0,0,3.539,1.624,4.354,4.354,0,0,0,3.422-1.624,6.244,6.244,0,0,0,1.439-4.237,6.456,6.456,0,0,0-1.439-4.317,4.28,4.28,0,0,0-3.461-1.742,4.5,4.5,0,0,0-3.539,1.742A6.444,6.444,0,0,0,1351.242,32.967Z" transform="translate(-1289.072 -13.602)"/><path class="a" d="M1937.69,220.4h-5.483v-2.574a6.852,6.852,0,0,1-5.6,2.891,8.229,8.229,0,0,1-5.561-1.941,6.616,6.616,0,0,1-2.255-5.227,5.581,5.581,0,0,1,2.333-4.911,11.006,11.006,0,0,1,6.378-1.624h4.355V206.9q0-3.406-3.539-3.406a9.312,9.312,0,0,0-3.228.634,10.027,10.027,0,0,0-2.839,1.5l-2.606-3.841a15.415,15.415,0,0,1,9.411-3.049,9.615,9.615,0,0,1,6.223,1.94q2.411,1.941,2.411,6.138Zm-5.872-8.118v-1.03h-3.656q-3.5,0-3.5,2.218a2.125,2.125,0,0,0,.816,1.782,4.713,4.713,0,0,0,5.134-.356A3.216,3.216,0,0,0,1931.818,212.282Z" transform="translate(-1838.496 -190.422)"/><path class="a" d="M2404.51,207.256l3.578,5.7,3.695-5.7h6.844l-7.195,10.415,7.467,10.891h-6.961l-4.083-5.861-3.967,5.861h-6.728l7.311-10.851-6.922-10.455Z" transform="translate(-2296.848 -198.583)"/></svg>